<svg width="146" height="48" xmlns="http://www.w3.org/2000/svg"><g fill="none" fill-rule="evenodd"><path d="M37.735 26.722c-4.665 0-7.379-2.035-7.544-5.743h4.467c.198 1.542.96 2.428 3.044 2.428 1.853 0 2.714-.689 2.714-1.87 0-1.182-1.026-1.674-3.508-2.035-4.6-.69-6.386-2.002-6.386-5.35 0-3.577 3.309-5.35 6.85-5.35 3.838 0 6.717 1.379 7.147 5.317h-4.401c-.265-1.411-1.059-2.067-2.714-2.067-1.555 0-2.448.722-2.448 1.772 0 1.083.827 1.51 3.342 1.87 4.335.624 6.717 1.707 6.717 5.383 0 3.709-2.713 5.645-7.28 5.645zm9.222 5.481V9.196h4.798v2.691c.96-1.64 2.978-3.085 5.526-3.085 4.236 0 7.545 3.118 7.545 8.796v.263c0 5.678-3.243 8.861-7.545 8.861-2.68 0-4.633-1.313-5.526-2.986v8.467h-4.798zm8.901-9.19c2.647 0 4.103-1.772 4.103-5.12v-.262c0-3.479-1.72-5.186-4.136-5.186-2.515 0-4.236 1.74-4.236 5.186v.263c0 3.446 1.655 5.12 4.269 5.12zm15.74 3.71c-3.143 0-5.79-1.51-5.79-5.12 0-4.005 3.705-5.515 9-5.515h1.952V15.4c0-2.035-.628-3.15-2.812-3.15-1.887 0-2.747.951-2.945 2.428h-4.534c.298-4.07 3.54-5.875 7.776-5.875s7.247 1.707 7.247 6.367v11.192h-4.666v-2.067c-.992 1.378-2.514 2.428-5.228 2.428zm1.423-3.316c2.118 0 3.74-1.148 3.74-3.052v-1.444h-1.854c-2.78 0-4.4.59-4.4 2.429 0 1.247.76 2.067 2.514 2.067zm19.314 3.315c-5.063 0-8.901-3.118-8.901-8.73v-.263c0-5.546 4.004-8.927 8.934-8.927 4.004 0 7.71 1.74 8.14 6.663h-4.533c-.331-2.002-1.555-2.921-3.508-2.921-2.481 0-4.136 1.838-4.136 5.12v.262c0 3.447 1.555 5.219 4.236 5.219 1.919 0 3.474-1.116 3.706-3.315h4.335c-.265 4.07-3.243 6.892-8.273 6.892zm18.829 0c-5.229 0-9.034-3.249-9.034-8.73v-.263c0-5.415 3.871-8.927 8.901-8.927 4.467 0 8.438 2.593 8.438 8.73v1.313h-12.475c.132 2.856 1.688 4.497 4.302 4.497 2.217 0 3.309-.952 3.607-2.396h4.533c-.562 3.709-3.54 5.776-8.272 5.776zm-4.32-10.798h7.743c-.166-2.592-1.49-3.84-3.772-3.84-2.151 0-3.607 1.412-3.971 3.84zm15.038 10.437V1.418h4.765V26.36h-4.765zm10.069 5.842l3.044-7.581-6.883-15.426h5.162l4.203 10.306 3.871-10.306h4.6l-9.365 23.007h-4.632z" fill="#333F48"/><path d="M24.745 17.439c.038-6.574-5.308-11.93-11.933-11.963C6.184 5.438.787 10.739.752 17.31c-.035 6.573 5.306 11.925 11.932 11.961h.068c6.595 0 11.957-5.284 11.993-11.833" fill="#7038BA"/><path d="M6.843 16.628l5.944-5.93 5.946 5.93-2.048.002v6.367H8.887V16.63l-2.044-.002zm13.767-.766v-.001l-7.093-7.078a.973.973 0 0 0-.736-.324.99.99 0 0 0-.735.324L4.952 15.86v.001a1.54 1.54 0 0 0-.44 1.08 1.53 1.53 0 0 0 1.53 1.535h.97v5.388c0 .553.443 1.001 1 1.004h9.542a1 1 0 0 0 .996-1.004l-.002-5.388h.978c.842 0 1.532-.688 1.532-1.534 0-.422-.176-.803-.448-1.08z" fill="#FFF"/><path d="M43.858 45l-2.24-7.322h1.806l1.456 5.292 1.554-5.292h1.414l1.428 5.292 1.526-5.292h1.652L50.158 45h-1.722l-1.358-4.928L45.594 45h-1.736zm12.74-1.176c1.26 0 2.016-.938 2.016-2.436v-.098c0-1.512-.756-2.436-2.016-2.436s-2.03.91-2.03 2.422v.112c0 1.498.742 2.436 2.03 2.436zm-.014 1.316c-2.156 0-3.752-1.498-3.752-3.724v-.112c0-2.268 1.61-3.78 3.766-3.78 2.142 0 3.752 1.498 3.752 3.738v.112c0 2.282-1.61 3.766-3.766 3.766zm5.082-.14v-7.322h1.694v1.372c.462-.924 1.148-1.47 2.38-1.484v1.582c-1.484.014-2.38.49-2.38 2.044V45h-1.694zm5.348 0V34.29h1.694v6.608l2.618-3.22h1.848l-2.842 3.36L73.412 45h-1.96l-2.744-3.598V45h-1.694zm11.284 2.506l1.33-3.248-2.898-6.58h1.834l1.946 4.718 1.792-4.718h1.652l-3.99 9.828h-1.666zm9.716-3.682c1.26 0 2.016-.938 2.016-2.436v-.098c0-1.512-.756-2.436-2.016-2.436s-2.03.91-2.03 2.422v.112c0 1.498.742 2.436 2.03 2.436zM88 45.14c-2.156 0-3.752-1.498-3.752-3.724v-.112c0-2.268 1.61-3.78 3.766-3.78 2.142 0 3.752 1.498 3.752 3.738v.112c0 2.282-1.61 3.766-3.766 3.766zm7.532 0c-1.442 0-2.52-.826-2.52-2.772v-4.69h1.694v4.494c0 1.106.462 1.61 1.442 1.61.91 0 1.708-.588 1.708-1.75v-4.354h1.694V45h-1.694v-1.148c-.364.714-1.134 1.288-2.324 1.288zm5.81-.14v-7.322h1.694v1.372c.462-.924 1.148-1.47 2.38-1.484v1.582c-1.484.014-2.38.49-2.38 2.044V45h-1.694zm9.982 0l-2.24-7.322h1.806l1.456 5.292 1.554-5.292h1.414l1.428 5.292 1.526-5.292h1.652L117.624 45h-1.722l-1.358-4.928L113.06 45h-1.736zm11.382.14c-1.344 0-2.45-.644-2.45-2.17 0-1.708 1.652-2.324 3.752-2.324h.91v-.378c0-.98-.336-1.47-1.33-1.47-.882 0-1.316.42-1.4 1.148h-1.638c.14-1.708 1.498-2.422 3.136-2.422 1.638 0 2.926.672 2.926 2.674V45h-1.666v-.896c-.476.63-1.12 1.036-2.24 1.036zm.406-1.218c1.036 0 1.806-.546 1.806-1.484v-.728h-.868c-1.288 0-2.114.294-2.114 1.19 0 .616.336 1.022 1.176 1.022zm5.838 3.584l1.33-3.248-2.898-6.58h1.834l1.946 4.718 1.792-4.718h1.652l-3.99 9.828h-1.666z" fill="#333F48"/></g></svg>